<svg version="1.1" viewBox="0.0 0.0 600.0 371.0" fill="none" stroke="none" stroke-linecap="square" stroke-miterlimit="10" width="600" height="371" xmlns:xlink="http://www.w3.org/1999/xlink" xmlns="http://www.w3.org/2000/svg"><path fill="#ffffff" d="M0 0L600.0 0L600.0 371.0L0 371.0L0 0Z" fill-rule="nonzero"/><path stroke="#333333" stroke-width="1.0" stroke-linecap="butt" d="M79.5 54.5L79.5 300.5" fill-rule="nonzero"/><path stroke="#cccccc" stroke-width="1.0" stroke-linecap="butt" d="M205.5 54.5L205.5 300.5" fill-rule="nonzero"/><path stroke="#cccccc" stroke-width="1.0" stroke-linecap="butt" d="M330.5 54.5L330.5 300.5" fill-rule="nonzero"/><path stroke="#cccccc" stroke-width="1.0" stroke-linecap="butt" d="M455.5 54.5L455.5 300.5" fill-rule="nonzero"/><path stroke="#cccccc" stroke-width="1.0" stroke-linecap="butt" d="M581.5 54.5L581.5 300.5" fill-rule="nonzero"/><clipPath id="id_0"><path d="M79.55 54.916668L581.45 54.916668L581.45 300.45L79.55 300.45L79.55 54.916668Z" clip-rule="nonzero"/></clipPath><path stroke="#000000" stroke-width="2.0" stroke-linecap="butt" stroke-opacity="0.0" clip-path="url(#id_0)" d="M80.0 159.0L80.0 91.0L529.0 91.0C530.10455 91.0 531.0 91.89543 531.0 93.0L531.0 157.0C531.0 158.10457 530.10455 159.0 529.0 159.0Z" fill-rule="nonzero"/><path fill="#4285f4" clip-path="url(#id_0)" d="M80.0 159.0L80.0 91.0L529.0 91.0C530.10455 91.0 531.0 91.89543 531.0 93.0L531.0 157.0C531.0 158.10457 530.10455 159.0 529.0 159.0Z" fill-rule="nonzero"/><path stroke="#000000" stroke-width="2.0" stroke-linecap="butt" stroke-opacity="0.0" clip-path="url(#id_0)" d="M80.0 264.0L80.0 196.0L84.0 196.0C85.10457 196.0 86.0 196.89543 86.0 198.0L86.0 262.0C86.0 263.10458 85.10457 264.0 84.0 264.0Z" fill-rule="nonzero"/><path fill="#4285f4" clip-path="url(#id_0)" d="M80.0 264.0L80.0 196.0L84.0 196.0C85.10457 196.0 86.0 196.89543 86.0 198.0L86.0 262.0C86.0 263.10458 85.10457 264.0 84.0 264.0Z" fill-rule="nonzero"/><path fill="#000000" d="M296.98438 349.45L296.98438 340.85626L302.78125 340.85626L302.78125 341.8719L298.125 341.8719L298.125 344.52814L302.15625 344.52814L302.15625 345.54376L298.125 345.54376L298.125 349.45L296.98438 349.45ZM303.79688 342.075L303.79688 340.85626L304.85938 340.85626L304.85938 342.075L303.79688 342.075ZM303.79688 349.45L303.79688 343.23126L304.85938 343.23126L304.85938 349.45L303.79688 349.45ZM306.76562 349.45L306.76562 340.85626L307.82812 340.85626L307.82812 349.45L306.76562 349.45ZM314.04688 347.45L315.14062 347.575Q314.89062 348.52814 314.1875 349.0594Q313.48438 349.59064 312.40625 349.59064Q311.04688 349.59064 310.23438 348.7469Q309.4375 347.90314 309.4375 346.3875Q309.4375 344.825 310.25 343.96564Q311.0625 343.09064 312.34375 343.09064Q313.59375 343.09064 314.375 343.9344Q315.17188 344.77814 315.17188 346.325Q315.17188 346.41876 315.17188 346.60626L310.53125 346.60626Q310.59375 347.6375 311.10938 348.1844Q311.625 348.71564 312.40625 348.71564Q312.98438 348.71564 313.39062 348.41876Q313.8125 348.10626 314.04688 347.45ZM310.59375 345.7469L314.0625 345.7469Q314.0 344.95 313.67188 344.5594Q313.15625 343.95 312.35938 343.95Q311.625 343.95 311.125 344.4344Q310.64062 344.91876 310.59375 345.7469ZM316.375 347.59064L317.40625 347.4344Q317.5 348.0594 317.89062 348.3875Q318.29688 348.71564 319.03125 348.71564Q319.75 348.71564 320.09375 348.4344Q320.45312 348.1375 320.45312 347.73126Q320.45312 347.3719 320.14062 347.16876Q319.92188 347.02814 319.0625 346.8094Q317.90625 346.5125 317.45312 346.3094Q317.01562 346.09064 316.78125 345.71564Q316.54688 345.34064 316.54688 344.8719Q316.54688 344.46564 316.73438 344.10626Q316.92188 343.7469 317.25 343.5125Q317.5 343.34064 317.92188 343.21564Q318.34375 343.09064 318.84375 343.09064Q319.5625 343.09064 320.10938 343.3094Q320.67188 343.5125 320.9375 343.8719Q321.20312 344.23126 321.29688 344.825L320.26562 344.96564Q320.20312 344.4969 319.85938 344.23126Q319.53125 343.95 318.90625 343.95Q318.1875 343.95 317.875 344.2Q317.5625 344.4344 317.5625 344.7625Q317.5625 344.96564 317.6875 345.1219Q317.82812 345.29376 318.09375 345.40314Q318.25 345.46564 319.03125 345.66876Q320.15625 345.98126 320.59375 346.16876Q321.03125 346.35626 321.28125 346.71564Q321.53125 347.075 321.53125 347.6219Q321.53125 348.15314 321.21875 348.6219Q320.92188 349.075 320.34375 349.34064Q319.76562 349.59064 319.03125 349.59064Q317.8125 349.59064 317.17188 349.09064Q316.54688 348.575 316.375 347.59064ZM323.79688 342.075L323.79688 340.85626L324.85938 340.85626L324.85938 342.075L323.79688 342.075ZM323.79688 349.45L323.79688 343.23126L324.85938 343.23126L324.85938 349.45L323.79688 349.45ZM326.23438 349.45L326.23438 348.59064L330.20312 344.04376Q329.51562 344.075 329.0 344.075L326.46875 344.075L326.46875 343.23126L331.5625 343.23126L331.5625 343.91876L328.1875 347.8719L327.53125 348.59064Q328.25 348.54376 328.85938 348.54376L331.75 348.54376L331.75 349.45L326.23438 349.45ZM336.04688 347.45L337.14062 347.575Q336.89062 348.52814 336.1875 349.0594Q335.48438 349.59064 334.40625 349.59064Q333.04688 349.59064 332.23438 348.7469Q331.4375 347.90314 331.4375 346.3875Q331.4375 344.825 332.25 343.96564Q333.0625 343.09064 334.34375 343.09064Q335.59375 343.09064 336.375 343.9344Q337.17188 344.77814 337.17188 346.325Q337.17188 346.41876 337.17188 346.60626L332.53125 346.60626Q332.59375 347.6375 333.10938 348.1844Q333.625 348.71564 334.40625 348.71564Q334.98438 348.71564 335.39062 348.41876Q335.8125 348.10626 336.04688 347.45ZM332.59375 345.7469L336.0625 345.7469Q336.0 344.95 335.67188 344.5594Q335.15625 343.95 334.35938 343.95Q333.625 343.95 333.125 344.4344Q332.64062 344.91876 332.59375 345.7469ZM343.8125 351.98126Q342.9375 350.8719 342.32812 349.40314Q341.73438 347.91876 341.73438 346.34064Q341.73438 344.95 342.17188 343.66876Q342.70312 342.1844 343.8125 340.71564L344.5625 340.71564Q343.85938 341.9344 343.625 342.45Q343.26562 343.2625 343.0625 344.1375Q342.8125 345.23126 342.8125 346.34064Q342.8125 349.16876 344.5625 351.98126L343.8125 351.98126ZM345.875 349.45L345.875 340.85626L347.01562 340.85626L347.01562 345.1219L351.28125 340.85626L352.82812 340.85626L349.21875 344.34064L352.98438 349.45L351.48438 349.45L348.42188 345.10626L347.01562 346.46564L347.01562 349.45L345.875 349.45ZM353.875 349.45L353.875 340.85626L357.10938 340.85626Q358.09375 340.85626 358.6875 341.1219Q359.28125 341.3875 359.60938 341.9344Q359.95312 342.46564 359.95312 343.0594Q359.95312 343.60626 359.65625 344.09064Q359.35938 344.575 358.75 344.8719Q359.53125 345.10626 359.9375 345.66876Q360.35938 346.21564 360.35938 346.96564Q360.35938 347.5594 360.10938 348.09064Q359.85938 348.60626 359.48438 348.8875Q359.10938 349.16876 358.53125 349.3094Q357.96875 349.45 357.15625 349.45L353.875 349.45ZM355.01562 344.46564L356.875 344.46564Q357.625 344.46564 357.95312 344.3719Q358.39062 344.2469 358.60938 343.95Q358.82812 343.6375 358.82812 343.1844Q358.82812 342.7625 358.625 342.4344Q358.42188 342.10626 358.03125 341.9969Q357.65625 341.8719 356.73438 341.8719L355.01562 341.8719L355.01562 344.46564ZM355.01562 348.4344L357.15625 348.4344Q357.70312 348.4344 357.92188 348.3875Q358.32812 348.325 358.57812 348.16876Q358.84375 347.9969 359.01562 347.6844Q359.1875 347.3719 359.1875 346.96564Q359.1875 346.48126 358.9375 346.1219Q358.70312 345.7625 358.26562 345.6219Q357.82812 345.48126 357.0 345.48126L355.01562 345.48126L355.01562 348.4344ZM362.48438 351.98126L361.73438 351.98126Q363.48438 349.16876 363.48438 346.34064Q363.48438 345.2469 363.23438 344.15314Q363.03125 343.27814 362.67188 342.46564Q362.4375 341.95 361.73438 340.71564L362.48438 340.71564Q363.57812 342.1844 364.10938 343.66876Q364.5625 344.95 364.5625 346.34064Q364.5625 347.91876 363.95312 349.40314Q363.34375 350.8719 362.48438 351.98126Z" fill-rule="nonzero"/><path fill="#000000" d="M31.128124 125.2547Q31.128124 123.114075 32.26875 121.91095Q33.425 120.6922 35.2375 120.6922Q36.440624 120.6922 37.39375 121.270325Q38.346874 121.832825 38.846874 122.84845Q39.346874 123.864075 39.346874 125.16095Q39.346874 126.457825 38.815624 127.489075Q38.284374 128.52032 37.315624 129.05157Q36.3625 129.58282 35.2375 129.58282Q34.01875 129.58282 33.065624 129.0047Q32.1125 128.41095 31.6125 127.41095Q31.128124 126.395325 31.128124 125.2547ZM32.3 125.270325Q32.3 126.832825 33.128124 127.72345Q33.971874 128.61407 35.2375 128.61407Q36.51875 128.61407 37.346874 127.72345Q38.175 126.8172 38.175 125.145325Q38.175 124.09845 37.815624 123.3172Q37.471874 122.53595 36.784374 122.114075Q36.096874 121.676575 35.253124 121.676575Q34.05 121.676575 33.175 122.5047Q32.3 123.332825 32.3 125.270325ZM40.33125 129.4422L40.33125 123.22345L41.284374 123.22345L41.284374 124.16095Q41.64375 123.5047 41.940624 123.301575Q42.253124 123.082825 42.628124 123.082825Q43.159374 123.082825 43.70625 123.41095L43.346874 124.395325Q42.95625 124.16095 42.58125 124.16095Q42.221874 124.16095 41.940624 124.3797Q41.675 124.582825 41.565624 124.957825Q41.378124 125.520325 41.378124 126.176575L41.378124 129.4422L40.33125 129.4422ZM44.346874 122.0672L44.346874 120.84845L45.409374 120.84845L45.409374 122.0672L44.346874 122.0672ZM44.346874 129.4422L44.346874 123.22345L45.409374 123.22345L45.409374 129.4422L44.346874 129.4422ZM47.14375 129.95782L48.175 130.11407Q48.2375 130.58282 48.534374 130.80157Q48.925 131.09845 49.596874 131.09845Q50.33125 131.09845 50.721874 130.80157Q51.128124 130.5047 51.26875 129.98907Q51.3625 129.66095 51.346874 128.6297Q50.659374 129.4422 49.628124 129.4422Q48.346874 129.4422 47.64375 128.52032Q46.940624 127.582825 46.940624 126.301575Q46.940624 125.41095 47.253124 124.66095Q47.58125 123.895325 48.190624 123.489075Q48.8 123.082825 49.628124 123.082825Q50.7375 123.082825 51.45625 123.97345L51.45625 123.22345L52.425 123.22345L52.425 128.59845Q52.425 130.05157 52.128124 130.66095Q51.83125 131.27032 51.190624 131.61407Q50.55 131.97345 49.6125 131.97345Q48.503124 131.97345 47.815624 131.47345Q47.128124 130.97345 47.14375 129.95782ZM48.01875 126.22345Q48.01875 127.4422 48.503124 128.0047Q48.9875 128.5672 49.721874 128.5672Q50.45625 128.5672 50.940624 128.0047Q51.440624 127.4422 51.440624 126.2547Q51.440624 125.114075 50.925 124.53595Q50.425 123.957825 49.70625 123.957825Q49.003124 123.957825 48.503124 124.53595Q48.01875 125.09845 48.01875 126.22345ZM54.346874 122.0672L54.346874 120.84845L55.409374 120.84845L55.409374 122.0672L54.346874 122.0672ZM54.346874 129.4422L54.346874 123.22345L55.409374 123.22345L55.409374 129.4422L54.346874 129.4422ZM57.346874 129.4422L57.346874 123.22345L58.284374 123.22345L58.284374 124.09845Q58.971874 123.082825 60.26875 123.082825Q60.83125 123.082825 61.3 123.28595Q61.784374 123.489075 62.01875 123.8172Q62.253124 124.145325 62.346874 124.582825Q62.39375 124.8797 62.39375 125.614075L62.39375 129.4422L61.346874 129.4422L61.346874 125.66095Q61.346874 125.0047 61.221874 124.6922Q61.096874 124.3797 60.784374 124.1922Q60.471874 123.989075 60.05 123.989075Q59.378124 123.989075 58.878124 124.426575Q58.39375 124.84845 58.39375 126.03595L58.39375 129.4422L57.346874 129.4422ZM68.40938 128.67657Q67.81563 129.17657 67.26875 129.3797Q66.7375 129.58282 66.1125 129.58282Q65.08125 129.58282 64.53438 129.08282Q63.9875 128.58282 63.9875 127.801575Q63.9875 127.34845 64.19063 126.97345Q64.39375 126.582825 64.7375 126.364075Q65.08125 126.1297 65.50313 126.020325Q65.8 125.926575 66.44063 125.84845Q67.70625 125.707825 68.31563 125.489075Q68.31563 125.270325 68.31563 125.22345Q68.31563 124.5672 68.01875 124.301575Q67.6125 123.957825 66.81563 123.957825Q66.08125 123.957825 65.72188 124.22345Q65.3625 124.47345 65.19063 125.1297L64.15938 124.989075Q64.3 124.332825 64.62813 123.926575Q64.95625 123.520325 65.56563 123.301575Q66.175 123.082825 66.97188 123.082825Q67.76875 123.082825 68.26875 123.270325Q68.76875 123.457825 69.00313 123.739075Q69.2375 124.020325 69.33125 124.457825Q69.37813 124.72345 69.37813 125.426575L69.37813 126.832825Q69.37813 128.30157 69.44063 128.6922Q69.51875 129.08282 69.72188 129.4422L68.6125 129.4422Q68.45625 129.11407 68.40938 128.67657ZM68.31563 126.3172Q67.7375 126.551575 66.59688 126.72345Q65.94063 126.8172 65.675 126.9422Q65.40938 127.051575 65.25313 127.270325Q65.1125 127.489075 65.1125 127.770325Q65.1125 128.1922 65.425 128.47345Q65.75313 128.7547 66.3625 128.7547Q66.97188 128.7547 67.44063 128.48907Q67.925 128.22345 68.14375 127.7547Q68.31563 127.395325 68.31563 126.707825L68.31563 126.3172ZM71.31563 129.4422L71.31563 120.84845L72.37813 120.84845L72.37813 129.4422L71.31563 129.4422Z" fill-rule="nonzero"/><path fill="#000000" d="M19.128124 229.73697Q19.128124 227.59634 20.26875 226.39322Q21.425 225.17447 23.2375 225.17447Q24.440624 225.17447 25.39375 225.7526Q26.346874 226.3151 26.846874 227.33072Q27.346874 228.34634 27.346874 229.64322Q27.346874 230.9401 26.815624 231.97134Q26.284374 233.0026 25.315624 233.53384Q24.3625 234.0651 23.2375 234.0651Q22.01875 234.0651 21.065624 233.48697Q20.1125 232.89322 19.6125 231.89322Q19.128124 230.8776 19.128124 229.73697ZM20.3 229.7526Q20.3 231.3151 21.128124 232.20572Q21.971874 233.09634 23.2375 233.09634Q24.51875 233.09634 25.346874 232.20572Q26.175 231.29947 26.175 229.6276Q26.175 228.58072 25.815624 227.79947Q25.471874 227.01822 24.784374 226.59634Q24.096874 226.15884 23.253124 226.15884Q22.05 226.15884 21.175 226.98697Q20.3 227.8151 20.3 229.7526ZM28.346874 236.3151L28.346874 227.70572L29.3 227.70572L29.3 228.5026Q29.64375 228.03384 30.065624 227.79947Q30.503124 227.5651 31.1125 227.5651Q31.909374 227.5651 32.51875 227.97134Q33.128124 228.3776 33.425 229.1276Q33.7375 229.8776 33.7375 230.76822Q33.7375 231.72134 33.39375 232.48697Q33.065624 233.2526 32.409374 233.65884Q31.753124 234.0651 31.034374 234.0651Q30.503124 234.0651 30.08125 233.84634Q29.659374 233.61197 29.39375 233.28384L29.39375 236.3151L28.346874 236.3151ZM29.3 230.84634Q29.3 232.04947 29.784374 232.6276Q30.26875 233.1901 30.95625 233.1901Q31.659374 233.1901 32.159374 232.59634Q32.659374 232.0026 32.659374 230.7526Q32.659374 229.5651 32.175 228.98697Q31.690624 228.39322 31.003124 228.39322Q30.33125 228.39322 29.815624 229.01822Q29.3 229.64322 29.3 230.84634ZM39.596874 231.92447L40.690624 232.04947Q40.440624 233.0026 39.7375 233.53384Q39.034374 234.0651 37.95625 234.0651Q36.596874 234.0651 35.784374 233.22134Q34.9875 232.3776 34.9875 230.86197Q34.9875 229.29947 35.8 228.4401Q36.6125 227.5651 37.89375 227.5651Q39.14375 227.5651 39.925 228.40884Q40.721874 229.2526 40.721874 230.79947Q40.721874 230.89322 40.721874 231.08072L36.08125 231.08072Q36.14375 232.11197 36.659374 232.65884Q37.175 233.1901 37.95625 233.1901Q38.534374 233.1901 38.940624 232.89322Q39.3625 232.58072 39.596874 231.92447ZM36.14375 230.22134L39.6125 230.22134Q39.55 229.42447 39.221874 229.03384Q38.70625 228.42447 37.909374 228.42447Q37.175 228.42447 36.675 228.90884Q36.190624 229.39322 36.14375 230.22134ZM42.346874 233.92447L42.346874 227.70572L43.284374 227.70572L43.284374 228.58072Q43.971874 227.5651 45.26875 227.5651Q45.83125 227.5651 46.3 227.76822Q46.784374 227.97134 47.01875 228.29947Q47.253124 228.6276 47.346874 229.0651Q47.39375 229.36197 47.39375 230.09634L47.39375 233.92447L46.346874 233.92447L46.346874 230.14322Q46.346874 229.48697 46.221874 229.17447Q46.096874 228.86197 45.784374 228.67447Q45.471874 228.47134 45.05 228.47134Q44.378124 228.47134 43.878124 228.90884Q43.39375 229.33072 43.39375 230.51822L43.39375 233.92447L42.346874 233.92447ZM48.534374 233.92447L51.83125 225.33072L53.05 225.33072L56.565624 233.92447L55.284374 233.92447L54.26875 231.3151L50.690624 231.3151L49.7375 233.92447L48.534374 233.92447ZM51.01875 230.39322L53.925 230.39322L53.034374 228.01822Q52.6125 226.9401 52.425 226.23697Q52.253124 227.0651 51.95625 227.8776L51.01875 230.39322ZM55.925 232.0651L56.95625 231.90884Q57.05 232.53384 57.440624 232.86197Q57.846874 233.1901 58.58125 233.1901Q59.3 233.1901 59.64375 232.90884Q60.003124 232.61197 60.003124 232.20572Q60.003124 231.84634 59.690624 231.64322Q59.471874 231.5026 58.6125 231.28384Q57.45625 230.98697 57.003124 230.78384Q56.565624 230.5651 56.33125 230.1901Q56.096874 229.8151 56.096874 229.34634Q56.096874 228.9401 56.284374 228.58072Q56.471874 228.22134 56.8 227.98697Q57.05 227.8151 57.471874 227.6901Q57.89375 227.5651 58.39375 227.5651Q59.1125 227.5651 59.659374 227.78384Q60.221874 227.98697 60.4875 228.34634Q60.753124 228.70572 60.846874 229.29947L59.815624 229.4401Q59.753124 228.97134 59.409374 228.70572Q59.08125 228.42447 58.45625 228.42447Q57.7375 228.42447 57.425 228.67447Q57.1125 228.90884 57.1125 229.23697Q57.1125 229.4401 57.2375 229.59634Q57.378124 229.76822 57.64375 229.8776Q57.8 229.9401 58.58125 230.14322Q59.70625 230.45572 60.14375 230.64322Q60.58125 230.83072 60.83125 231.1901Q61.08125 231.54947 61.08125 232.09634Q61.08125 232.6276 60.76875 233.09634Q60.471874 233.54947 59.89375 233.8151Q59.315624 234.0651 58.58125 234.0651Q57.3625 234.0651 56.721874 233.5651Q56.096874 233.04947 55.925 232.0651ZM67.40938 233.15884Q66.81563 233.65884 66.26875 233.86197Q65.7375 234.0651 65.1125 234.0651Q64.08125 234.0651 63.534374 233.5651Q62.9875 233.0651 62.9875 232.28384Q62.9875 231.83072 63.190624 231.45572Q63.39375 231.0651 63.7375 230.84634Q64.08125 230.61197 64.50313 230.5026Q64.8 230.40884 65.44063 230.33072Q66.70625 230.1901 67.31563 229.97134Q67.31563 229.7526 67.31563 229.70572Q67.31563 229.04947 67.01875 228.78384Q66.6125 228.4401 65.81563 228.4401Q65.08125 228.4401 64.72188 228.70572Q64.3625 228.95572 64.19063 229.61197L63.159374 229.47134Q63.3 228.8151 63.628124 228.40884Q63.95625 228.0026 64.56563 227.78384Q65.175 227.5651 65.97188 227.5651Q66.76875 227.5651 67.26875 227.7526Q67.76875 227.9401 68.00313 228.22134Q68.2375 228.5026 68.33125 228.9401Q68.37813 229.20572 68.37813 229.90884L68.37813 231.3151Q68.37813 232.78384 68.44063 233.17447Q68.51875 233.5651 68.72188 233.92447L67.6125 233.92447Q67.45625 233.59634 67.40938 233.15884ZM67.31563 230.79947Q66.7375 231.03384 65.59688 231.20572Q64.94063 231.29947 64.675 231.42447Q64.40938 231.53384 64.25313 231.7526Q64.1125 231.97134 64.1125 232.2526Q64.1125 232.67447 64.425 232.95572Q64.75313 233.23697 65.3625 233.23697Q65.97188 233.23697 66.44063 232.97134Q66.925 232.70572 67.14375 232.23697Q67.31563 231.8776 67.31563 231.1901L67.31563 230.79947ZM70.33125 233.92447L70.33125 227.70572L71.28438 227.70572L71.28438 228.64322Q71.64375 227.98697 71.94063 227.78384Q72.25313 227.5651 72.62813 227.5651Q73.15938 227.5651 73.70625 227.89322L73.34688 228.8776Q72.95625 228.64322 72.58125 228.64322Q72.22188 228.64322 71.94063 228.86197Q71.675 229.0651 71.56563 229.4401Q71.37813 230.0026 71.37813 230.65884L71.37813 233.92447L70.33125 233.92447Z" fill-rule="nonzero"/><path fill="#000000" d="M76.55 313.21564Q76.55 311.6844 76.8625 310.7625Q77.175 309.825 77.78438 309.325Q78.40938 308.825 79.34688 308.825Q80.03438 308.825 80.55 309.10626Q81.08125 309.3875 81.425 309.91876Q81.76875 310.4344 81.95625 311.1844Q82.14375 311.9344 82.14375 313.21564Q82.14375 314.73126 81.83125 315.65314Q81.53438 316.575 80.90938 317.09064Q80.3 317.59064 79.34688 317.59064Q78.1125 317.59064 77.39375 316.7Q76.55 315.6375 76.55 313.21564ZM77.62813 313.21564Q77.62813 315.325 78.12813 316.02814Q78.62813 316.73126 79.34688 316.73126Q80.08125 316.73126 80.56563 316.02814Q81.06563 315.325 81.06563 313.21564Q81.06563 311.09064 80.56563 310.40314Q80.08125 309.7 79.33125 309.7Q78.6125 309.7 78.175 310.3094Q77.62813 311.09064 77.62813 313.21564Z" fill-rule="nonzero"/><path fill="#000000" d="M197.07187 316.4344L197.07187 317.45L191.38437 317.45Q191.38437 317.075 191.50937 316.71564Q191.72812 316.1375 192.19687 315.575Q192.68124 315.0125 193.5875 314.27814Q194.99374 313.1219 195.47812 312.45Q195.97812 311.77814 195.97812 311.1844Q195.97812 310.5594 195.525 310.1375Q195.07187 309.7 194.35312 309.7Q193.5875 309.7 193.13437 310.15314Q192.68124 310.60626 192.66562 311.41876L191.5875 311.3094Q191.69687 310.09064 192.41562 309.46564Q193.15 308.825 194.38437 308.825Q195.61874 308.825 196.3375 309.5125Q197.05624 310.2 197.05624 311.21564Q197.05624 311.73126 196.8375 312.23126Q196.63437 312.71564 196.13437 313.27814Q195.65 313.825 194.525 314.77814Q193.57187 315.575 193.29062 315.8719Q193.025 316.15314 192.85312 316.4344L197.07187 316.4344ZM198.525 315.2L199.63437 315.10626Q199.75937 315.91876 200.19687 316.325Q200.65 316.73126 201.29062 316.73126Q202.04062 316.73126 202.57187 316.15314Q203.10312 315.575 203.10312 314.6375Q203.10312 313.73126 202.5875 313.21564Q202.0875 312.6844 201.25937 312.6844Q200.75937 312.6844 200.3375 312.91876Q199.93124 313.15314 199.69687 313.5125L198.7125 313.3875L199.54062 308.98126L203.82187 308.98126L203.82187 309.98126L200.38437 309.98126L199.93124 312.29376Q200.69687 311.7469 201.54062 311.7469Q202.66562 311.7469 203.43124 312.52814Q204.2125 313.3094 204.2125 314.54376Q204.2125 315.7 203.54062 316.5594Q202.7125 317.59064 201.29062 317.59064Q200.11874 317.59064 199.36874 316.9344Q198.63437 316.27814 198.525 315.2ZM205.525 313.21564Q205.525 311.6844 205.8375 310.7625Q206.15 309.825 206.75937 309.325Q207.38437 308.825 208.32187 308.825Q209.00937 308.825 209.525 309.10626Q210.05624 309.3875 210.4 309.91876Q210.74374 310.4344 210.93124 311.1844Q211.11874 311.9344 211.11874 313.21564Q211.11874 314.73126 210.80624 315.65314Q210.50937 316.575 209.88437 317.09064Q209.275 317.59064 208.32187 317.59064Q207.0875 317.59064 206.36874 316.7Q205.525 315.6375 205.525 313.21564ZM206.60312 313.21564Q206.60312 315.325 207.10312 316.02814Q207.60312 316.73126 208.32187 316.73126Q209.05624 316.73126 209.54062 316.02814Q210.04062 315.325 210.04062 313.21564Q210.04062 311.09064 209.54062 310.40314Q209.05624 309.7 208.30624 309.7Q207.5875 309.7 207.15 310.3094Q206.60312 311.09064 206.60312 313.21564ZM212.525 313.21564Q212.525 311.6844 212.8375 310.7625Q213.15 309.825 213.75937 309.325Q214.38437 308.825 215.32187 308.825Q216.00937 308.825 216.525 309.10626Q217.05624 309.3875 217.4 309.91876Q217.74374 310.4344 217.93124 311.1844Q218.11874 311.9344 218.11874 313.21564Q218.11874 314.73126 217.80624 315.65314Q217.50937 316.575 216.88437 317.09064Q216.275 317.59064 215.32187 317.59064Q214.0875 317.59064 213.36874 316.7Q212.525 315.6375 212.525 313.21564ZM213.60312 313.21564Q213.60312 315.325 214.10312 316.02814Q214.60312 316.73126 215.32187 316.73126Q216.05624 316.73126 216.54062 316.02814Q217.04062 315.325 217.04062 313.21564Q217.04062 311.09064 216.54062 310.40314Q216.05624 309.7 215.30624 309.7Q214.5875 309.7 214.15 310.3094Q213.60312 311.09064 213.60312 313.21564Z" fill-rule="nonzero"/><path fill="#000000" d="M317.0 315.2L318.10938 315.10626Q318.23438 315.91876 318.67188 316.325Q319.125 316.73126 319.76562 316.73126Q320.51562 316.73126 321.04688 316.15314Q321.57812 315.575 321.57812 314.6375Q321.57812 313.73126 321.0625 313.21564Q320.5625 312.6844 319.73438 312.6844Q319.23438 312.6844 318.8125 312.91876Q318.40625 313.15314 318.17188 313.5125L317.1875 313.3875L318.01562 308.98126L322.29688 308.98126L322.29688 309.98126L318.85938 309.98126L318.40625 312.29376Q319.17188 311.7469 320.01562 311.7469Q321.14062 311.7469 321.90625 312.52814Q322.6875 313.3094 322.6875 314.54376Q322.6875 315.7 322.01562 316.5594Q321.1875 317.59064 319.76562 317.59064Q318.59375 317.59064 317.84375 316.9344Q317.10938 316.27814 317.0 315.2ZM324.0 313.21564Q324.0 311.6844 324.3125 310.7625Q324.625 309.825 325.23438 309.325Q325.85938 308.825 326.79688 308.825Q327.48438 308.825 328.0 309.10626Q328.53125 309.3875 328.875 309.91876Q329.21875 310.4344 329.40625 311.1844Q329.59375 311.9344 329.59375 313.21564Q329.59375 314.73126 329.28125 315.65314Q328.98438 316.575 328.35938 317.09064Q327.75 317.59064 326.79688 317.59064Q325.5625 317.59064 324.84375 316.7Q324.0 315.6375 324.0 313.21564ZM325.07812 313.21564Q325.07812 315.325 325.57812 316.02814Q326.07812 316.73126 326.79688 316.73126Q327.53125 316.73126 328.01562 316.02814Q328.51562 315.325 328.51562 313.21564Q328.51562 311.09064 328.01562 310.40314Q327.53125 309.7 326.78125 309.7Q326.0625 309.7 325.625 310.3094Q325.07812 311.09064 325.07812 313.21564ZM331.0 313.21564Q331.0 311.6844 331.3125 310.7625Q331.625 309.825 332.23438 309.325Q332.85938 308.825 333.79688 308.825Q334.48438 308.825 335.0 309.10626Q335.53125 309.3875 335.875 309.91876Q336.21875 310.4344 336.40625 311.1844Q336.59375 311.9344 336.59375 313.21564Q336.59375 314.73126 336.28125 315.65314Q335.98438 316.575 335.35938 317.09064Q334.75 317.59064 333.79688 317.59064Q332.5625 317.59064 331.84375 316.7Q331.0 315.6375 331.0 313.21564ZM332.07812 313.21564Q332.07812 315.325 332.57812 316.02814Q333.07812 316.73126 333.79688 316.73126Q334.53125 316.73126 335.01562 316.02814Q335.51562 315.325 335.51562 313.21564Q335.51562 311.09064 335.01562 310.40314Q334.53125 309.7 333.78125 309.7Q333.0625 309.7 332.625 310.3094Q332.07812 311.09064 332.07812 313.21564ZM338.0 313.21564Q338.0 311.6844 338.3125 310.7625Q338.625 309.825 339.23438 309.325Q339.85938 308.825 340.79688 308.825Q341.48438 308.825 342.0 309.10626Q342.53125 309.3875 342.875 309.91876Q343.21875 310.4344 343.40625 311.1844Q343.59375 311.9344 343.59375 313.21564Q343.59375 314.73126 343.28125 315.65314Q342.98438 316.575 342.35938 317.09064Q341.75 317.59064 340.79688 317.59064Q339.5625 317.59064 338.84375 316.7Q338.0 315.6375 338.0 313.21564ZM339.07812 313.21564Q339.07812 315.325 339.57812 316.02814Q340.07812 316.73126 340.79688 316.73126Q341.53125 316.73126 342.01562 316.02814Q342.51562 315.325 342.51562 313.21564Q342.51562 311.09064 342.01562 310.40314Q341.53125 309.7 340.78125 309.7Q340.0625 309.7 339.625 310.3094Q339.07812 311.09064 339.07812 313.21564Z" fill-rule="nonzero"/><path fill="#000000" d="M442.5375 309.98126L442.5375 308.96564L448.1 308.96564L448.1 309.79376Q447.2875 310.66876 446.475 312.1219Q445.67813 313.5594 445.24063 315.09064Q444.9125 316.16876 444.83438 317.45L443.74063 317.45Q443.75626 316.4344 444.13126 314.9969Q444.52188 313.5594 445.225 312.23126Q445.94376 310.90314 446.75626 309.98126L442.5375 309.98126ZM449.475 315.2L450.58438 315.10626Q450.70938 315.91876 451.14688 316.325Q451.6 316.73126 452.24063 316.73126Q452.99063 316.73126 453.52188 316.15314Q454.05313 315.575 454.05313 314.6375Q454.05313 313.73126 453.5375 313.21564Q453.0375 312.6844 452.20938 312.6844Q451.70938 312.6844 451.2875 312.91876Q450.88126 313.15314 450.64688 313.5125L449.6625 313.3875L450.49063 308.98126L454.77188 308.98126L454.77188 309.98126L451.33438 309.98126L450.88126 312.29376Q451.64688 311.7469 452.49063 311.7469Q453.61563 311.7469 454.38126 312.52814Q455.1625 313.3094 455.1625 314.54376Q455.1625 315.7 454.49063 316.5594Q453.6625 317.59064 452.24063 317.59064Q451.06876 317.59064 450.31876 316.9344Q449.58438 316.27814 449.475 315.2ZM456.475 313.21564Q456.475 311.6844 456.7875 310.7625Q457.1 309.825 457.70938 309.325Q458.33438 308.825 459.27188 308.825Q459.95938 308.825 460.475 309.10626Q461.00626 309.3875 461.35 309.91876Q461.69376 310.4344 461.88126 311.1844Q462.06876 311.9344 462.06876 313.21564Q462.06876 314.73126 461.75626 315.65314Q461.45938 316.575 460.83438 317.09064Q460.225 317.59064 459.27188 317.59064Q458.0375 317.59064 457.31876 316.7Q456.475 315.6375 456.475 313.21564ZM457.55313 313.21564Q457.55313 315.325 458.05313 316.02814Q458.55313 316.73126 459.27188 316.73126Q460.00626 316.73126 460.49063 316.02814Q460.99063 315.325 460.99063 313.21564Q460.99063 311.09064 460.49063 310.40314Q460.00626 309.7 459.25626 309.7Q458.5375 309.7 458.1 310.3094Q457.55313 311.09064 457.55313 313.21564ZM463.475 313.21564Q463.475 311.6844 463.7875 310.7625Q464.1 309.825 464.70938 309.325Q465.33438 308.825 466.27188 308.825Q466.95938 308.825 467.475 309.10626Q468.00626 309.3875 468.35 309.91876Q468.69376 310.4344 468.88126 311.1844Q469.06876 311.9344 469.06876 313.21564Q469.06876 314.73126 468.75626 315.65314Q468.45938 316.575 467.83438 317.09064Q467.225 317.59064 466.27188 317.59064Q465.0375 317.59064 464.31876 316.7Q463.475 315.6375 463.475 313.21564ZM464.55313 313.21564Q464.55313 315.325 465.05313 316.02814Q465.55313 316.73126 466.27188 316.73126Q467.00626 316.73126 467.49063 316.02814Q467.99063 315.325 467.99063 313.21564Q467.99063 311.09064 467.49063 310.40314Q467.00626 309.7 466.25626 309.7Q465.5375 309.7 465.1 310.3094Q464.55313 311.09064 464.55313 313.21564Z" fill-rule="nonzero"/><path fill="#000000" d="M568.41876 317.45L567.3719 317.45L567.3719 310.73126Q566.98126 311.09064 566.35626 311.46564Q565.7469 311.825 565.2625 311.9969L565.2625 310.98126Q566.1375 310.5594 566.79376 309.98126Q567.46564 309.3875 567.7469 308.825L568.41876 308.825L568.41876 317.45ZM571.45 313.21564Q571.45 311.6844 571.7625 310.7625Q572.075 309.825 572.6844 309.325Q573.3094 308.825 574.2469 308.825Q574.9344 308.825 575.45 309.10626Q575.98126 309.3875 576.325 309.91876Q576.66876 310.4344 576.85626 311.1844Q577.04376 311.9344 577.04376 313.21564Q577.04376 314.73126 576.73126 315.65314Q576.4344 316.575 575.8094 317.09064Q575.2 317.59064 574.2469 317.59064Q573.0125 317.59064 572.29376 316.7Q571.45 315.6375 571.45 313.21564ZM572.52814 313.21564Q572.52814 315.325 573.02814 316.02814Q573.52814 316.73126 574.2469 316.73126Q574.98126 316.73126 575.46564 316.02814Q575.96564 315.325 575.96564 313.21564Q575.96564 311.09064 575.46564 310.40314Q574.98126 309.7 574.23126 309.7Q573.5125 309.7 573.075 310.3094Q572.52814 311.09064 572.52814 313.21564ZM578.45 313.21564Q578.45 311.6844 578.7625 310.7625Q579.075 309.825 579.6844 309.325Q580.3094 308.825 581.2469 308.825Q581.9344 308.825 582.45 309.10626Q582.98126 309.3875 583.325 309.91876Q583.66876 310.4344 583.85626 311.1844Q584.04376 311.9344 584.04376 313.21564Q584.04376 314.73126 583.73126 315.65314Q583.4344 316.575 582.8094 317.09064Q582.2 317.59064 581.2469 317.59064Q580.0125 317.59064 579.29376 316.7Q578.45 315.6375 578.45 313.21564ZM579.52814 313.21564Q579.52814 315.325 580.02814 316.02814Q580.52814 316.73126 581.2469 316.73126Q581.98126 316.73126 582.46564 316.02814Q582.96564 315.325 582.96564 313.21564Q582.96564 311.09064 582.46564 310.40314Q581.98126 309.7 581.23126 309.7Q580.5125 309.7 580.075 310.3094Q579.52814 311.09064 579.52814 313.21564ZM585.45 313.21564Q585.45 311.6844 585.7625 310.7625Q586.075 309.825 586.6844 309.325Q587.3094 308.825 588.2469 308.825Q588.9344 308.825 589.45 309.10626Q589.98126 309.3875 590.325 309.91876Q590.66876 310.4344 590.85626 311.1844Q591.04376 311.9344 591.04376 313.21564Q591.04376 314.73126 590.73126 315.65314Q590.4344 316.575 589.8094 317.09064Q589.2 317.59064 588.2469 317.59064Q587.0125 317.59064 586.29376 316.7Q585.45 315.6375 585.45 313.21564ZM586.52814 313.21564Q586.52814 315.325 587.02814 316.02814Q587.52814 316.73126 588.2469 316.73126Q588.98126 316.73126 589.46564 316.02814Q589.96564 315.325 589.96564 313.21564Q589.96564 311.09064 589.46564 310.40314Q588.98126 309.7 588.23126 309.7Q587.5125 309.7 587.075 310.3094Q586.52814 311.09064 586.52814 313.21564ZM592.45 313.21564Q592.45 311.6844 592.7625 310.7625Q593.075 309.825 593.6844 309.325Q594.3094 308.825 595.2469 308.825Q595.9344 308.825 596.45 309.10626Q596.98126 309.3875 597.325 309.91876Q597.66876 310.4344 597.85626 311.1844Q598.04376 311.9344 598.04376 313.21564Q598.04376 314.73126 597.73126 315.65314Q597.4344 316.575 596.8094 317.09064Q596.2 317.59064 595.2469 317.59064Q594.0125 317.59064 593.29376 316.7Q592.45 315.6375 592.45 313.21564ZM593.52814 313.21564Q593.52814 315.325 594.02814 316.02814Q594.52814 316.73126 595.2469 316.73126Q595.98126 316.73126 596.46564 316.02814Q596.96564 315.325 596.96564 313.21564Q596.96564 311.09064 596.46564 310.40314Q595.98126 309.7 595.23126 309.7Q594.5125 309.7 594.075 310.3094Q593.52814 311.09064 593.52814 313.21564Z" fill-rule="nonzero"/><path fill="#757575" d="M19.51875 30.58125Q19.51875 27.01875 21.425 25.003124Q23.346874 22.971874 26.378124 22.971874Q28.3625 22.971874 29.940624 23.925Q31.534374 24.878124 32.3625 26.58125Q33.20625 28.26875 33.20625 30.409374Q33.20625 32.58125 32.33125 34.3Q31.45625 36.01875 29.83125 36.909374Q28.221874 37.8 26.3625 37.8Q24.346874 37.8 22.753124 36.83125Q21.159374 35.846874 20.33125 34.159374Q19.51875 32.45625 19.51875 30.58125ZM21.471874 30.6125Q21.471874 33.190624 22.8625 34.690624Q24.253124 36.175 26.346874 36.175Q28.4875 36.175 29.8625 34.675Q31.253124 33.159374 31.253124 30.39375Q31.253124 28.659374 30.659374 27.3625Q30.08125 26.05 28.940624 25.33125Q27.8 24.6125 26.378124 24.6125Q24.378124 24.6125 22.925 26.003124Q21.471874 27.378124 21.471874 30.6125ZM35.8625 41.51875L35.8625 27.175L37.471874 27.175L37.471874 28.51875Q38.034374 27.7375 38.7375 27.346874Q39.45625 26.940624 40.471874 26.940624Q41.8 26.940624 42.815624 27.628124Q43.83125 28.315624 44.346874 29.565624Q44.878124 30.8 44.878124 32.284374Q44.878124 33.878124 44.3 35.159374Q43.7375 36.425 42.64375 37.1125Q41.55 37.784374 40.346874 37.784374Q39.471874 37.784374 38.76875 37.409374Q38.08125 37.034374 37.628124 36.471874L37.628124 41.51875L35.8625 41.51875ZM37.45625 32.425Q37.45625 34.425 38.26875 35.378124Q39.08125 36.33125 40.2375 36.33125Q41.409374 36.33125 42.2375 35.346874Q43.08125 34.3625 43.08125 32.26875Q43.08125 30.3 42.253124 29.315624Q41.440624 28.315624 40.315624 28.315624Q39.190624 28.315624 38.315624 29.378124Q37.45625 30.425 37.45625 32.425ZM53.971874 34.20625L55.784374 34.440624Q55.3625 36.01875 54.190624 36.909374Q53.034374 37.784374 51.221874 37.784374Q48.95625 37.784374 47.6125 36.39375Q46.284374 34.9875 46.284374 32.45625Q46.284374 29.83125 47.628124 28.39375Q48.971874 26.940624 51.128124 26.940624Q53.20625 26.940624 54.51875 28.3625Q55.846874 29.76875 55.846874 32.346874Q55.846874 32.503124 55.83125 32.815624L48.096874 32.815624Q48.190624 34.51875 49.065624 35.425Q49.940624 36.33125 51.2375 36.33125Q52.20625 36.33125 52.878124 35.83125Q53.565624 35.315624 53.971874 34.20625ZM48.190624 31.3625L53.9875 31.3625Q53.878124 30.065624 53.33125 29.409374Q52.4875 28.39375 51.14375 28.39375Q49.940624 28.39375 49.1125 29.20625Q48.284374 30.003124 48.190624 31.3625ZM57.8625 37.55L57.8625 27.175L59.45625 27.175L59.45625 28.659374Q60.596874 26.940624 62.753124 26.940624Q63.690624 26.940624 64.47188 27.284374Q65.26875 27.6125 65.65938 28.159374Q66.05 28.70625 66.20625 29.45625Q66.3 29.95625 66.3 31.175L66.3 37.55L64.53438 37.55L64.53438 31.2375Q64.53438 30.159374 64.33125 29.628124Q64.12813 29.096874 63.596874 28.784374Q63.08125 28.471874 62.378124 28.471874Q61.253124 28.471874 60.440624 29.190624Q59.628124 29.89375 59.628124 31.878124L59.628124 37.55L57.8625 37.55ZM66.51875 37.55L72.01875 23.2375L74.06563 23.2375L79.925 37.55L77.76875 37.55L76.09688 33.20625L70.1125 33.20625L68.53438 37.55L66.51875 37.55ZM70.65938 31.675L75.50313 31.675L74.01875 27.70625Q73.33125 25.89375 73.00313 24.7375Q72.72188 26.1125 72.22188 27.471874L70.65938 31.675ZM80.15938 34.45625L81.90938 34.175Q82.05 35.221874 82.72188 35.784374Q83.39375 36.33125 84.59688 36.33125Q85.8 36.33125 86.37813 35.846874Q86.97188 35.346874 86.97188 34.690624Q86.97188 34.096874 86.45625 33.753124Q86.09688 33.51875 84.65938 33.159374Q82.72188 32.659374 81.97188 32.315624Q81.2375 31.95625 80.84688 31.33125Q80.45625 30.690624 80.45625 29.925Q80.45625 29.2375 80.76875 28.64375Q81.09688 28.05 81.64375 27.659374Q82.05 27.3625 82.75313 27.159374Q83.47188 26.940624 84.28438 26.940624Q85.50313 26.940624 86.425 27.3Q87.34688 27.64375 87.78438 28.253124Q88.22188 28.846874 88.39375 29.846874L86.675 30.08125Q86.55 29.284374 85.9875 28.846874Q85.425 28.39375 84.40938 28.39375Q83.19063 28.39375 82.675 28.8Q82.15938 29.190624 82.15938 29.721874Q82.15938 30.065624 82.37813 30.346874Q82.58125 30.628124 83.05 30.815624Q83.31563 30.909374 84.59688 31.253124Q86.47188 31.753124 87.20625 32.08125Q87.94063 32.39375 88.3625 33.003124Q88.78438 33.596874 88.78438 34.503124Q88.78438 35.378124 88.26875 36.159374Q87.75313 36.940624 86.78438 37.3625Q85.81563 37.784374 84.59688 37.784374Q82.58125 37.784374 81.51875 36.940624Q80.45625 36.096874 80.15938 34.45625ZM97.64375 36.26875Q96.65938 37.096874 95.75313 37.440624Q94.84688 37.784374 93.81563 37.784374Q92.1125 37.784374 91.19063 36.95625Q90.26875 36.1125 90.26875 34.815624Q90.26875 34.05 90.6125 33.425Q90.97188 32.8 91.53438 32.425Q92.09688 32.034374 92.8 31.83125Q93.31563 31.70625 94.3625 31.565624Q96.4875 31.315624 97.4875 30.971874Q97.50313 30.6125 97.50313 30.503124Q97.50313 29.440624 97.00313 28.9875Q96.33125 28.39375 95.00313 28.39375Q93.75313 28.39375 93.15938 28.83125Q92.58125 29.26875 92.3 30.378124L90.58125 30.14375Q90.81563 29.034374 91.34688 28.3625Q91.87813 27.675 92.89375 27.315624Q93.90938 26.940624 95.25313 26.940624Q96.58125 26.940624 97.40938 27.253124Q98.2375 27.565624 98.62813 28.05Q99.01875 28.51875 99.175 29.2375Q99.26875 29.690624 99.26875 30.8625L99.26875 33.20625Q99.26875 35.659374 99.37813 36.315624Q99.4875 36.95625 99.83125 37.55L97.9875 37.55Q97.72188 37.003124 97.64375 36.26875ZM97.4875 32.346874Q96.53438 32.7375 94.6125 33.003124Q93.53438 33.159374 93.08125 33.3625Q92.64375 33.55 92.39375 33.925Q92.14375 34.3 92.14375 34.76875Q92.14375 35.471874 92.675 35.940624Q93.20625 36.409374 94.2375 36.409374Q95.25313 36.409374 96.03438 35.971874Q96.83125 35.51875 97.20625 34.753124Q97.4875 34.14375 97.4875 32.9875L97.4875 32.346874ZM101.84688 37.55L101.84688 27.175L103.425 27.175L103.425 28.753124Q104.03438 27.64375 104.55 27.3Q105.06563 26.940624 105.675 26.940624Q106.56563 26.940624 107.4875 27.503124L106.87813 29.14375Q106.2375 28.753124 105.59688 28.753124Q105.01875 28.753124 104.55 29.1125Q104.09688 29.45625 103.89375 30.065624Q103.6125 31.003124 103.6125 32.1125L103.6125 37.55L101.84688 37.55ZM115.19063 37.55L115.19063 23.2375L124.84688 23.2375L124.84688 24.925L117.08125 24.925L117.08125 29.3625L123.8 29.3625L123.8 31.05L117.08125 31.05L117.08125 37.55L115.19063 37.55ZM126.87813 25.253124L126.87813 23.2375L128.64375 23.2375L128.64375 25.253124L126.87813 25.253124ZM126.87813 37.55L126.87813 27.175L128.64375 27.175L128.64375 37.55L126.87813 37.55ZM130.83125 37.55L130.83125 23.2375L132.58125 23.2375L132.58125 37.55L130.83125 37.55ZM141.97188 34.20625L143.78438 34.440624Q143.3625 36.01875 142.19063 36.909374Q141.03438 37.784374 139.22188 37.784374Q136.95625 37.784374 135.6125 36.39375Q134.28438 34.9875 134.28438 32.45625Q134.28438 29.83125 135.62813 28.39375Q136.97188 26.940624 139.12813 26.940624Q141.20625 26.940624 142.51875 28.3625Q143.84688 29.76875 143.84688 32.346874Q143.84688 32.503124 143.83125 32.815624L136.09688 32.815624Q136.19063 34.51875 137.06563 35.425Q137.94063 36.33125 139.2375 36.33125Q140.20625 36.33125 140.87813 35.83125Q141.56563 35.315624 141.97188 34.20625ZM136.19063 31.3625L141.9875 31.3625Q141.87813 30.065624 141.33125 29.409374Q140.4875 28.39375 139.14375 28.39375Q137.94063 28.39375 137.1125 29.20625Q136.28438 30.003124 136.19063 31.3625ZM145.15938 34.45625L146.90938 34.175Q147.05 35.221874 147.72188 35.784374Q148.39375 36.33125 149.59688 36.33125Q150.8 36.33125 151.37813 35.846874Q151.97188 35.346874 151.97188 34.690624Q151.97188 34.096874 151.45625 33.753124Q151.09688 33.51875 149.65938 33.159374Q147.72188 32.659374 146.97188 32.315624Q146.2375 31.95625 145.84688 31.33125Q145.45625 30.690624 145.45625 29.925Q145.45625 29.2375 145.76875 28.64375Q146.09688 28.05 146.64375 27.659374Q147.05 27.3625 147.75313 27.159374Q148.47188 26.940624 149.28438 26.940624Q150.50313 26.940624 151.425 27.3Q152.34688 27.64375 152.78438 28.253124Q153.22188 28.846874 153.39375 29.846874L151.675 30.08125Q151.55 29.284374 150.9875 28.846874Q150.425 28.39375 149.40938 28.39375Q148.19063 28.39375 147.675 28.8Q147.15938 29.190624 147.15938 29.721874Q147.15938 30.065624 147.37813 30.346874Q147.58125 30.628124 148.05 30.815624Q148.31563 30.909374 149.59688 31.253124Q151.47188 31.753124 152.20625 32.08125Q152.94063 32.39375 153.3625 33.003124Q153.78438 33.596874 153.78438 34.503124Q153.78438 35.378124 153.26875 36.159374Q152.75313 36.940624 151.78438 37.3625Q150.81563 37.784374 149.59688 37.784374Q147.58125 37.784374 146.51875 36.940624Q145.45625 36.096874 145.15938 34.45625ZM155.87813 25.253124L155.87813 23.2375L157.64375 23.2375L157.64375 25.253124L155.87813 25.253124ZM155.87813 37.55L155.87813 27.175L157.64375 27.175L157.64375 37.55L155.87813 37.55ZM158.94063 37.55L158.94063 36.128124L165.55 28.55Q164.425 28.596874 163.56563 28.596874L159.33125 28.596874L159.33125 27.175L167.81563 27.175L167.81563 28.346874L162.19063 34.925L161.1125 36.128124Q162.28438 36.034374 163.33125 36.034374L168.12813 36.034374L168.12813 37.55L158.94063 37.55ZM175.97188 34.20625L177.78438 34.440624Q177.3625 36.01875 176.19063 36.909374Q175.03438 37.784374 173.22188 37.784374Q170.95625 37.784374 169.6125 36.39375Q168.28438 34.9875 168.28438 32.45625Q168.28438 29.83125 169.62813 28.39375Q170.97188 26.940624 173.12813 26.940624Q175.20625 26.940624 176.51875 28.3625Q177.84688 29.76875 177.84688 32.346874Q177.84688 32.503124 177.83125 32.815624L170.09688 32.815624Q170.19063 34.51875 171.06563 35.425Q171.94063 36.33125 173.2375 36.33125Q174.20625 36.33125 174.87813 35.83125Q175.56563 35.315624 175.97188 34.20625ZM170.19063 31.3625L175.9875 31.3625Q175.87813 30.065624 175.33125 29.409374Q174.4875 28.39375 173.14375 28.39375Q171.94063 28.39375 171.1125 29.20625Q170.28438 30.003124 170.19063 31.3625ZM196.31563 32.534374L198.20625 33.003124Q197.6125 35.346874 196.06563 36.58125Q194.51875 37.8 192.26875 37.8Q189.95625 37.8 188.50313 36.8625Q187.06563 35.909374 186.3 34.128124Q185.55 32.33125 185.55 30.284374Q185.55 28.05 186.39375 26.39375Q187.25313 24.721874 188.83125 23.8625Q190.40938 22.9875 192.3 22.9875Q194.45625 22.9875 195.90938 24.08125Q197.37813 25.175 197.95625 27.159374L196.09688 27.596874Q195.59688 26.034374 194.64375 25.33125Q193.70625 24.6125 192.26875 24.6125Q190.6125 24.6125 189.50313 25.409374Q188.39375 26.190624 187.94063 27.534374Q187.50313 28.8625 187.50313 30.26875Q187.50313 32.096874 188.03438 33.471874Q188.56563 34.83125 189.69063 35.503124Q190.81563 36.175 192.1125 36.175Q193.70625 36.175 194.81563 35.253124Q195.925 34.33125 196.31563 32.534374ZM199.22188 32.3625Q199.22188 29.4875 200.81563 28.096874Q202.15938 26.940624 204.08125 26.940624Q206.22188 26.940624 207.56563 28.346874Q208.925 29.753124 208.925 32.221874Q208.925 34.221874 208.33125 35.378124Q207.7375 36.51875 206.58125 37.159374Q205.44063 37.784374 204.08125 37.784374Q201.89375 37.784374 200.55 36.39375Q199.22188 34.9875 199.22188 32.3625ZM201.01875 32.3625Q201.01875 34.3625 201.87813 35.346874Q202.75313 36.33125 204.08125 36.33125Q205.39375 36.33125 206.25313 35.346874Q207.12813 34.346874 207.12813 32.3Q207.12813 30.378124 206.25313 29.39375Q205.37813 28.39375 204.08125 28.39375Q202.75313 28.39375 201.87813 29.39375Q201.01875 30.378124 201.01875 32.3625ZM210.8625 37.55L210.8625 27.175L212.44063 27.175L212.44063 28.628124Q212.925 27.878124 213.7375 27.409374Q214.55 26.940624 215.58125 26.940624Q216.7375 26.940624 217.47188 27.425Q218.20625 27.89375 218.51875 28.753124Q219.75313 26.940624 221.72188 26.940624Q223.26875 26.940624 224.09688 27.8Q224.925 28.659374 224.925 30.425L224.925 37.55L223.175 37.55L223.175 31.01875Q223.175 29.95625 223.00313 29.503124Q222.83125 29.034374 222.37813 28.753124Q221.94063 28.471874 221.33125 28.471874Q220.2375 28.471874 219.50313 29.20625Q218.78438 29.925 218.78438 31.51875L218.78438 37.55L217.03438 37.55L217.03438 30.815624Q217.03438 29.64375 216.59688 29.065624Q216.175 28.471874 215.19063 28.471874Q214.45625 28.471874 213.81563 28.8625Q213.19063 29.253124 212.90938 30.003124Q212.62813 30.753124 212.62813 32.175L212.62813 37.55L210.8625 37.55ZM226.8625 41.51875L226.8625 27.175L228.47188 27.175L228.47188 28.51875Q229.03438 27.7375 229.7375 27.346874Q230.45625 26.940624 231.47188 26.940624Q232.8 26.940624 233.81563 27.628124Q234.83125 28.315624 235.34688 29.565624Q235.87813 30.8 235.87813 32.284374Q235.87813 33.878124 235.3 35.159374Q234.7375 36.425 233.64375 37.1125Q232.55 37.784374 231.34688 37.784374Q230.47188 37.784374 229.76875 37.409374Q229.08125 37.034374 228.62813 36.471874L228.62813 41.51875L226.8625 41.51875ZM228.45625 32.425Q228.45625 34.425 229.26875 35.378124Q230.08125 36.33125 231.2375 36.33125Q232.40938 36.33125 233.2375 35.346874Q234.08125 34.3625 234.08125 32.26875Q234.08125 30.3 233.25313 29.315624Q232.44063 28.315624 231.31563 28.315624Q230.19063 28.315624 229.31563 29.378124Q228.45625 30.425 228.45625 32.425ZM244.64375 36.26875Q243.65938 37.096874 242.75313 37.440624Q241.84688 37.784374 240.81563 37.784374Q239.1125 37.784374 238.19063 36.95625Q237.26875 36.1125 237.26875 34.815624Q237.26875 34.05 237.6125 33.425Q237.97188 32.8 238.53438 32.425Q239.09688 32.034374 239.8 31.83125Q240.31563 31.70625 241.3625 31.565624Q243.4875 31.315624 244.4875 30.971874Q244.50313 30.6125 244.50313 30.503124Q244.50313 29.440624 244.00313 28.9875Q243.33125 28.39375 242.00313 28.39375Q240.75313 28.39375 240.15938 28.83125Q239.58125 29.26875 239.3 30.378124L237.58125 30.14375Q237.81563 29.034374 238.34688 28.3625Q238.87813 27.675 239.89375 27.315624Q240.90938 26.940624 242.25313 26.940624Q243.58125 26.940624 244.40938 27.253124Q245.2375 27.565624 245.62813 28.05Q246.01875 28.51875 246.175 29.2375Q246.26875 29.690624 246.26875 30.8625L246.26875 33.20625Q246.26875 35.659374 246.37813 36.315624Q246.4875 36.95625 246.83125 37.55L244.9875 37.55Q244.72188 37.003124 244.64375 36.26875ZM244.4875 32.346874Q243.53438 32.7375 241.6125 33.003124Q240.53438 33.159374 240.08125 33.3625Q239.64375 33.55 239.39375 33.925Q239.14375 34.3 239.14375 34.76875Q239.14375 35.471874 239.675 35.940624Q240.20625 36.409374 241.2375 36.409374Q242.25313 36.409374 243.03438 35.971874Q243.83125 35.51875 244.20625 34.753124Q244.4875 34.14375 244.4875 32.9875L244.4875 32.346874ZM248.84688 37.55L248.84688 27.175L250.425 27.175L250.425 28.753124Q251.03438 27.64375 251.55 27.3Q252.06563 26.940624 252.675 26.940624Q253.56563 26.940624 254.4875 27.503124L253.87813 29.14375Q253.2375 28.753124 252.59688 28.753124Q252.01875 28.753124 251.55 29.1125Q251.09688 29.45625 250.89375 30.065624Q250.6125 31.003124 250.6125 32.1125L250.6125 37.55L248.84688 37.55ZM255.87813 25.253124L255.87813 23.2375L257.64374 23.2375L257.64374 25.253124L255.87813 25.253124ZM255.87813 37.55L255.87813 27.175L257.64374 27.175L257.64374 37.55L255.87813 37.55ZM259.15936 34.45625L260.90936 34.175Q261.05 35.221874 261.72186 35.784374Q262.39374 36.33125 263.59686 36.33125Q264.8 36.33125 265.3781 35.846874Q265.97186 35.346874 265.97186 34.690624Q265.97186 34.096874 265.45624 33.753124Q265.09686 33.51875 263.65936 33.159374Q261.72186 32.659374 260.97186 32.315624Q260.2375 31.95625 259.84686 31.33125Q259.45624 30.690624 259.45624 29.925Q259.45624 29.2375 259.76874 28.64375Q260.09686 28.05 260.64374 27.659374Q261.05 27.3625 261.7531 27.159374Q262.47186 26.940624 263.28436 26.940624Q264.5031 26.940624 265.425 27.3Q266.34686 27.64375 266.78436 28.253124Q267.22186 28.846874 267.39374 29.846874L265.675 30.08125Q265.55 29.284374 264.9875 28.846874Q264.425 28.39375 263.40936 28.39375Q262.1906 28.39375 261.675 28.8Q261.15936 29.190624 261.15936 29.721874Q261.15936 30.065624 261.3781 30.346874Q261.58124 30.628124 262.05 30.815624Q262.3156 30.909374 263.59686 31.253124Q265.47186 31.753124 266.20624 32.08125Q266.9406 32.39375 267.3625 33.003124Q267.78436 33.596874 267.78436 34.503124Q267.78436 35.378124 267.26874 36.159374Q266.7531 36.940624 265.78436 37.3625Q264.8156 37.784374 263.59686 37.784374Q261.58124 37.784374 260.51874 36.940624Q259.45624 36.096874 259.15936 34.45625ZM269.22186 32.3625Q269.22186 29.4875 270.8156 28.096874Q272.15936 26.940624 274.08124 26.940624Q276.22186 26.940624 277.5656 28.346874Q278.925 29.753124 278.925 32.221874Q278.925 34.221874 278.33124 35.378124Q277.7375 36.51875 276.58124 37.159374Q275.4406 37.784374 274.08124 37.784374Q271.89374 37.784374 270.55 36.39375Q269.22186 34.9875 269.22186 32.3625ZM271.01874 32.3625Q271.01874 34.3625 271.8781 35.346874Q272.7531 36.33125 274.08124 36.33125Q275.39374 36.33125 276.2531 35.346874Q277.1281 34.346874 277.1281 32.3Q277.1281 30.378124 276.2531 29.39375Q275.3781 28.39375 274.08124 28.39375Q272.7531 28.39375 271.8781 29.39375Q271.01874 30.378124 271.01874 32.3625ZM280.8625 37.55L280.8625 27.175L282.45624 27.175L282.45624 28.659374Q283.59686 26.940624 285.7531 26.940624Q286.6906 26.940624 287.47186 27.284374Q288.26874 27.6125 288.65936 28.159374Q289.05 28.70625 289.20624 29.45625Q289.3 29.95625 289.3 31.175L289.3 37.55L287.53436 37.55L287.53436 31.2375Q287.53436 30.159374 287.33124 29.628124Q287.1281 29.096874 286.59686 28.784374Q286.08124 28.471874 285.3781 28.471874Q284.2531 28.471874 283.4406 29.190624Q282.6281 29.89375 282.6281 31.878124L282.6281 37.55L280.8625 37.55Z" fill-rule="nonzero"/></svg>